<svg version="1.1" viewBox="0.0 0.0 960.0 720.0" fill="none" stroke="none" stroke-linecap="square" stroke-miterlimit="10" xmlns:xlink="http://www.w3.org/1999/xlink" xmlns="http://www.w3.org/2000/svg"><clipPath id="p.0"><path d="m0 0l960.0 0l0 720.0l-960.0 0l0 -720.0z" clip-rule="nonzero"/></clipPath><g clip-path="url(#p.0)"><path fill="#000000" fill-opacity="0.0" d="m0 0l960.0 0l0 720.0l-960.0 0z" fill-rule="evenodd"/><path fill="#000000" fill-opacity="0.0" d="m564.2257 116.44882l-251.77164 0l0 423.84775l381.28085 0l0 -321.50916z" fill-rule="evenodd"/><path stroke="#000000" stroke-width="16.0" stroke-linejoin="round" stroke-linecap="butt" d="m564.2257 116.44882l-251.77164 0l0 423.84775l381.28085 0l0 -321.50916z" fill-rule="evenodd"/><path fill="#000000" fill-opacity="0.0" d="m331.04462 195.92389l343.68506 0l0 259.62204l-343.68506 0z" fill-rule="evenodd"/><path fill="#000000" d="m359.20087 253.02866q-1.21875 0 -1.828125 -1.65625q-1.296875 -2.859375 -1.296875 -10.390625q0 -7.28125 0.265625 -16.734375q0.078125 -3.03125 0.078125 -9.359375l-0.25 -0.34375l-9.625 0q-1.125 0 -1.78125 -1.25q-0.640625 -1.265625 -1.0 -3.515625q-0.421875 -2.59375 -0.421875 -7.453125l0 -1.21875q0 -0.859375 0.078125 -1.375l0 -1.296875l0 -0.78125q0 -0.53125 0.515625 -0.921875q0.53125 -0.390625 1.21875 -0.5625q0.875 -0.25 2.609375 -0.25l6.578125 0q2.171875 0 3.296875 0.078125l3.203125 0.09375l31.203125 0q3.375 0 4.40625 0.078125q0.4375 0.09375 1.21875 0.1875q0.78125 0.078125 1.125 0.34375q0.609375 0.25 0.734375 0.640625q0.140625 0.390625 0.140625 1.171875l0 14.296875q0 0.953125 -0.78125 1.296875q-0.53125 0.171875 -1.390625 0.171875l-2.765625 0l-2.859375 0q-2.0 0 -3.046875 -0.171875l-2.59375 0q-0.78125 0 -0.859375 0.359375q0 0.078125 -0.09375 0.21875q-0.09375 0.125 -0.09375 0.296875l0 1.296875l0 2.953125q0 1.296875 -0.078125 1.984375q0 2.515625 -0.34375 11.015625l-0.171875 2.59375q-0.171875 3.640625 -0.359375 5.28125l0 8.234375q0 2.953125 -1.203125 3.734375q-1.125 0.421875 -1.5625 0.515625l-2.171875 0.078125q-3.375 0 -4.765625 0.171875l-9.09375 0.09375q-1.734375 0.09375 -6.234375 0.09375z" fill-rule="nonzero"/><path fill="#000000" d="m418.69714 254.07553q-0.359375 0 -1.0 -0.09375q-0.3125 -0.09375 -1.0 -0.09375q-1.71875 0 -4.25 -0.765625l-0.328125 0q-0.3125 0 -0.671875 -0.1875q-0.09375 -0.09375 -0.234375 -0.15625q-0.125 -0.078125 -0.3125 -0.203125l-0.953125 -0.546875q-1.359375 -0.765625 -2.40625 -2.140625q-1.03125 -1.390625 -1.671875 -3.078125q-1.21875 -3.078125 -1.21875 -6.296875q0 -3.578125 1.453125 -6.890625q1.53125 -3.484375 4.125 -5.53125q2.84375 -2.265625 6.34375 -2.265625q1.078125 0 1.671875 0.09375q0 -0.09375 0.140625 -0.09375l0.125 0q3.1875 0 5.671875 0.234375q2.125 0.3125 3.9375 1.3125q3.640625 2.40625 5.21875 5.25q1.671875 3.171875 1.671875 7.484375q0 4.3125 -2.03125 8.0625l-0.453125 0.734375q-0.1875 0.265625 -0.234375 0.265625l-0.125 0.234375l-0.328125 0.171875q-1.9375 2.90625 -5.890625 3.953125q-2.625 0.546875 -7.25 0.546875zm0.765625 -3.40625q0.40625 0 0.640625 -0.5q0.546875 -0.8125 0.90625 -3.171875q0.046875 -0.40625 0.21875 -1.8125q0.1875 -1.40625 0.234375 -2.625q0.1875 -3.09375 0.1875 -3.8125l0 -1.046875l0 -0.359375q0 -1.625 -0.140625 -2.8125q-0.140625 -1.859375 -0.546875 -2.9375q-0.40625 -0.546875 -0.640625 -0.546875q-0.453125 0 -0.859375 0.671875q-0.40625 0.6875 -0.625 2.5l-0.953125 7.25l0 0.90625l0 0.59375q0.140625 1.90625 0.140625 2.484375l0.078125 1.09375l0.140625 1.453125q0 0.359375 0.09375 0.625l0.5 1.6875q0.046875 0.171875 0.25 0.265625q0.203125 0.09375 0.375 0.09375zm39.847748 2.125q-0.09375 -0.21875 -0.21875 -0.21875l-0.046875 -0.09375q-0.046875 0 -0.125 -0.0625q-0.0625 -0.078125 -0.109375 -0.078125l-3.578125 -4.078125q-0.046875 -0.09375 -0.375 -0.453125q-0.3125 -0.359375 -0.484375 -0.546875q-0.40625 -0.40625 -0.546875 -0.578125q-0.3125 -0.234375 -0.40625 -0.234375q-0.265625 0 -0.265625 0.3125l0 0.953125q-0.09375 0.5 -0.09375 1.453125q-0.046875 0.546875 -0.046875 1.453125q-0.046875 0.453125 -0.046875 0.953125l0 0.3125l0 0.40625q0 0.640625 -0.140625 0.640625l-0.125 0l-0.234375 0l-0.21875 0l-0.1875 0q-1.3125 0.140625 -3.90625 0.140625l-3.9375 0l-0.671875 0l-0.828125 0l-0.671875 0l-0.3125 0l-1.734375 -0.40625l-0.125 -0.328125l0 -0.453125q-0.046875 -0.265625 -0.046875 -1.125q-0.046875 -0.90625 -0.046875 -3.3125q0 -1.140625 -0.09375 -1.671875l0 -1.359375q-0.140625 -6.890625 -0.140625 -14.109375l0 -1.078125q-0.09375 -0.453125 -0.09375 -1.0l0 -0.1875l0 -0.3125l0 -0.3125q0 -0.09375 0.09375 -0.140625q0.09375 -0.359375 0.34375 -0.515625q0.25 -0.15625 0.65625 -0.25q0.1875 0 0.34375 0.046875q0.15625 0.046875 0.375 0.046875q0.640625 0.078125 0.78125 0.078125l7.703125 0l3.484375 0.046875q0.09375 0 0.140625 0.046875q0.046875 0.046875 0.046875 0.140625q0.1875 0.453125 0.1875 0.953125q0.03125 0.21875 0.03125 0.625q0 1.953125 -0.03125 2.90625q-0.1875 1.21875 -0.1875 2.453125q0.546875 0 0.859375 -0.234375q0.046875 -0.046875 0.140625 -0.09375q0.09375 -0.046875 0.125 -0.125q0.09375 -0.140625 0.421875 -0.375l0.671875 -0.671875q1.59375 -1.40625 1.453125 -1.3125l3.625 -3.40625q0.5 -0.40625 0.875 -0.71875q0.390625 -0.3125 0.671875 -0.546875q0.765625 -0.546875 0.953125 -0.546875q0.21875 0 0.484375 0.453125q0.46875 0.453125 0.546875 0.59375q0.40625 0.765625 1.125 1.46875q0.734375 0.703125 0.921875 0.890625q0.765625 0.859375 1.171875 1.40625q0.40625 0.546875 0.6875 1.21875l0 0.09375q0 0.671875 -1.046875 1.71875q-0.265625 0.265625 -0.46875 0.453125q-0.203125 0.1875 -0.34375 0.3125l-0.6875 0.6875q-0.125 0 -0.359375 0.3125l-1.546875 1.265625q-0.859375 0.78125 -1.484375 1.28125l-0.359375 0.3125l-0.328125 0.21875q-0.359375 0.140625 -0.453125 0.234375q0 0.09375 -0.046875 0.1875q-0.046875 0.078125 -0.046875 0.21875q0 0.3125 0.203125 0.609375q0.21875 0.296875 0.4375 0.578125q0.140625 0.171875 0.59375 0.453125q0 0 0.453125 0.453125l0.765625 0.671875l1.5 1.3125l1.3125 1.234375l1.546875 1.484375q0.765625 0.8125 1.09375 1.296875q0.34375 0.46875 0.34375 0.796875q0 0.453125 -0.3125 0.671875q-0.71875 0.6875 -1.265625 1.046875q-0.90625 0.640625 -1.359375 1.0q-1.671875 1.3125 -2.5 1.765625q-0.171875 0.046875 -1.265625 0.546875l-0.71875 0.359375q-0.328125 0.1875 -0.375 0.1875q-0.53125 0.265625 -0.859375 0.265625q-0.21875 0 -0.359375 -0.140625l-0.90625 -0.953125zm15.994568 -0.046875q-0.078125 0 -0.125 -0.171875q-0.328125 -0.40625 -0.453125 -1.0q-0.140625 -0.234375 -0.234375 -0.59375q-0.40625 -0.8125 -0.578125 -2.265625q-0.1875 -2.078125 -0.1875 -3.3125q-0.046875 -0.53125 -0.046875 -1.484375l0 -1.09375q0 -1.359375 -0.046875 -2.125q-0.046875 -0.8125 -0.046875 -3.21875q0 -6.4375 0.28125 -9.9375q0 -0.53125 1.53125 -0.8125l1.359375 0l1.140625 0q2.578125 0 3.84375 0.09375q1.90625 0.140625 3.859375 0.140625q0.453125 0 0.6875 -0.046875l0.671875 0l0.234375 0.171875q1.484375 -0.3125 3.0625 -0.390625q1.59375 -0.09375 3.859375 -0.09375q0.09375 0 0.234375 0.125l1.453125 0q0.359375 0 0.5625 0.40625q0.203125 0.40625 0.34375 1.1875q0.171875 0.578125 0.265625 1.453125q0.1875 1.125 0.3125 1.484375q0 1.28125 -0.453125 1.28125q-0.03125 0 -0.125 -0.140625l-0.1875 -0.046875q-0.21875 -0.046875 -0.5 0.046875q-0.265625 0.140625 -0.578125 0.140625q-0.28125 0 -0.453125 -0.140625q-0.09375 -0.046875 -0.421875 -0.046875q-0.40625 0 -0.9375 0.140625q-0.1875 0.046875 -0.71875 0.140625q-0.515625 0.078125 -1.1875 0.078125q-1.953125 0 -2.8125 0.09375q-0.5 0.046875 -0.953125 0.265625l0 -0.078125q-0.1875 0 -0.3125 0.453125q-0.328125 0.765625 -0.421875 2.125q-0.03125 0.40625 -0.03125 0.90625q0 0.5 0.15625 0.6875q0.15625 0.171875 0.515625 0.171875q0.265625 0 0.453125 -0.1875q0.09375 0 0.21875 0.046875q0.140625 0.046875 0.234375 0.140625l3.859375 0q0.046875 -0.09375 0.125 -0.140625q0.09375 -0.046875 0.1875 -0.046875q0.453125 0 0.6875 0.140625q0.265625 0.140625 1.078125 0.28125q0.453125 0 0.640625 0.265625q0.21875 0.3125 0.21875 0.59375l0.953125 2.984375q0.140625 0.734375 -1.359375 0.953125q-0.859375 0.1875 -3.3125 0.1875l-1.9375 0l-1.359375 0q-0.640625 0 -0.96875 0.0625q-0.3125 0.0625 -0.390625 0.34375q-0.1875 0.21875 -0.1875 0.71875l0 0.1875q0 0.21875 0.046875 0.3125l-0.046875 1.0q-0.046875 0.3125 -0.046875 0.953125l0 0.453125l0 0.40625l0 0.265625q2.046875 0 4.171875 -0.125q2.078125 -0.140625 4.125 -0.140625q0.140625 0 0.21875 0.203125q0.09375 0.203125 0.09375 0.46875q0.09375 0.28125 0.09375 0.59375q0.09375 0.6875 0.265625 1.265625l0.328125 1.328125l0 0.90625l0 0.125l0 0.359375l-0.359375 0.328125l-0.328125 0l-0.125 0q-0.5 0 -0.640625 -0.046875q-0.140625 -0.09375 -0.3125 -0.09375q-0.09375 0.046875 -0.28125 0.140625q-0.171875 0.09375 -0.3125 0.171875l0 -0.21875l-0.546875 0.046875l-0.671875 0q-0.1875 0 -0.28125 -0.09375l-0.359375 -0.046875q-1.671875 0 -2.359375 0.3125l-14.375 0zm31.098969 0.328125l-0.71875 0l-0.6875 0l-0.359375 0l-1.765625 -0.5l-0.09375 -0.28125q-0.046875 0 -0.046875 -0.453125q0 -0.578125 -0.046875 -0.953125l-0.046875 -1.71875q-0.03125 -0.546875 -0.03125 -1.71875q0 -1.140625 -0.046875 -1.671875l0 -1.359375q-0.28125 -2.859375 -0.28125 -5.90625l0 -0.359375l0 -0.671875q0 -0.546875 0.046875 -0.78125l0 -0.359375l0 -0.3125q-0.046875 -0.140625 -0.046875 -0.453125l0 -0.5l0 -0.265625l0 -0.453125l0 -0.734375q0 -0.546875 0.046875 -0.765625l0 -0.453125l0.046875 -0.234375l0 -0.578125q0.046875 -0.453125 0.046875 -1.234375q0 -0.578125 -0.046875 -1.03125l-0.046875 -1.046875l-0.046875 -0.1875q-0.125 -0.09375 0 -0.125q0.1875 -0.734375 1.140625 -1.046875q0.453125 -0.1875 1.5 -0.1875q0.765625 0 4.03125 -0.125q1.625 -0.09375 2.03125 -0.09375q0.6875 -0.046875 1.640625 -0.046875q0.453125 0.046875 0.625 0.15625q0.1875 0.109375 0.34375 0.390625q0.15625 0.265625 0.25 0.40625l0.90625 1.3125q-0.046875 -0.046875 1.140625 1.625q1.078125 1.765625 2.625 4.0q0.21875 0.359375 0.53125 0.8125q0.328125 0.453125 0.6875 1.046875l0 -1.59375q0.046875 -0.640625 0.046875 -1.8125q0 -1.546875 0.09375 -3.453125q0 -0.359375 0.046875 -0.640625q0.046875 -0.296875 0.046875 -0.484375q0 -0.453125 0.046875 -0.453125q0.171875 -0.265625 0.625 -0.59375q0.546875 -0.359375 1.140625 -0.3125l2.265625 0l0.453125 0q0.671875 0 1.125 0.046875l1.359375 0q0.453125 0.046875 1.359375 0.046875l1.0 0l0.453125 0q0.90625 0 1.359375 0.3125q0.28125 0.1875 0.359375 0.484375q0.09375 0.28125 0.09375 0.875q0 0.59375 -0.046875 1.0q-0.046875 0.453125 -0.046875 1.09375l0 0.3125q0.046875 0.140625 0.046875 0.40625l0 1.171875l-0.046875 5.21875l0 5.125l0 1.21875q0 4.890625 -0.078125 6.21875l-0.140625 1.484375q-0.234375 1.046875 -0.640625 1.09375q-0.09375 0 -0.25 0.046875q-0.15625 0.046875 -0.328125 0.046875q-1.640625 0 -2.40625 -0.09375l-2.359375 0l-2.359375 0l-0.59375 0q-0.125 0.046875 -0.359375 0.046875q-0.546875 0 -1.125 -0.234375q-0.375 -0.09375 -0.78125 -0.5l-3.984375 -5.609375q-0.21875 -0.328125 -0.859375 -1.046875l-0.59375 -0.546875q-0.21875 -0.21875 -0.359375 -0.21875q-0.140625 0 -0.234375 0.109375q-0.078125 0.109375 -0.078125 0.203125l0 0.765625q-0.046875 0.359375 -0.046875 1.140625l0 1.3125q-0.046875 0.5 -0.046875 1.359375l0 1.09375l0 0.671875q-0.046875 0.09375 -0.046875 0.265625q0 0.046875 -0.140625 0.734375q-0.078125 0.171875 -0.125 0.21875q-0.046875 0.046875 -0.328125 0.046875q-0.09375 -0.046875 -0.15625 -0.046875q-0.0625 0 -0.109375 0q-3.578125 0.328125 -5.9375 0.328125l-0.640625 0z" fill-rule="nonzero"/><path fill="#000000" d="m374.9665 359.01303q-5.71875 0 -9.53125 -0.515625q-4.9375 -0.703125 -8.921875 -2.515625q-0.53125 -0.265625 -1.53125 -0.828125q-0.984375 -0.5625 -1.671875 -1.078125q-2.859375 -2.421875 -4.6875 -5.453125q-1.46875 -1.5625 -2.6875 -4.34375q-2.34375 -6.0625 -2.34375 -14.46875q0 -9.875 4.078125 -17.328125q3.546875 -7.109375 9.484375 -11.140625q5.9375 -4.03125 13.484375 -4.546875l1.03125 -0.078125l1.125 0q6.765625 0 14.5625 2.765625q0.6875 0.34375 3.03125 1.390625q2.34375 1.03125 4.34375 2.328125l-1.5625 11.265625l-5.125 -1.296875q-2.765625 -0.6875 -5.1875 -0.6875q-4.859375 0 -7.28125 3.640625q-2.609375 3.8125 -2.609375 12.390625q0 2.765625 0.265625 3.890625q0.34375 5.46875 2.421875 8.0625q2.0 2.25 4.765625 2.25q2.609375 0 5.8125 -1.640625q2.765625 -1.296875 6.0625 -3.546875l0.875 14.203125q-3.390625 3.125 -8.671875 5.296875q-5.03125 1.984375 -9.53125 1.984375z" fill-rule="nonzero"/><path fill="#000000" d="m410.35867 357.6224q-1.8125 0.078125 -3.078125 -0.09375q-1.046875 -0.234375 -1.90625 -0.640625q-0.859375 -0.40625 -1.578125 -1.265625q-1.453125 -1.8125 -1.953125 -4.765625q-0.359375 -2.390625 -0.265625 -5.25l0 -2.0q0 -0.40625 0.03125 -0.640625l0 -0.90625l0 -0.8125l0 -0.453125l0.140625 -0.3125q0 -0.046875 0.015625 -0.140625q0.03125 -0.09375 0.03125 -0.3125q0.140625 -1.640625 0.140625 -2.625l0.09375 -1.6875q0.03125 -1.125 0.03125 -2.625q0 -0.59375 -0.03125 -0.8125q-0.09375 -0.546875 -0.09375 -0.859375q0 -0.6875 1.40625 -0.6875l0.625 0q0.546875 0 0.734375 -0.09375l5.53125 0.09375q0 0 0.0625 0.078125q0.0625 0.0625 0.109375 0.0625l0.359375 -0.140625q2.359375 0 3.046875 0.453125q0.453125 0.328125 0.65625 0.96875q0.203125 0.625 0.203125 1.703125q0 0.734375 0.09375 2.0q0.09375 0.640625 0.09375 2.0l0 0.453125q-0.09375 1.3125 -0.1875 4.296875l-0.046875 2.1875l0 1.9375q-0.09375 0.546875 -0.09375 1.453125l0 0.6875l0 0.671875q-0.046875 0.640625 0.1875 1.765625q0.21875 0.359375 0.40625 0.359375q0.265625 0 2.046875 -0.671875l1.078125 -0.546875q0.453125 -0.171875 0.453125 -0.359375l0 -14.90625q-0.140625 -0.953125 -0.140625 -1.5q-0.03125 -0.234375 -0.03125 -0.6875l0 -0.671875l0 -0.453125q0 -0.546875 0.21875 -0.78125q0.09375 -0.125 0.453125 -0.125q0.09375 0 0.171875 0.0625q0.09375 0.0625 0.09375 0.15625l0 0.09375q0.453125 -0.1875 1.953125 -0.3125q1.234375 -0.140625 2.71875 -0.140625l1.140625 0l0.71875 0l0.859375 0l4.765625 0.140625q0.09375 0 0.15625 0.046875q0.0625 0.046875 0.0625 0.078125q0.046875 0 0.046875 0.046875q0 0.046875 0 0.046875l0 0.234375q-0.046875 0 -0.046875 0.125l0.234375 -0.03125q0.046875 -0.09375 0.140625 -0.09375q0.125 0 0.125 0.21875q0 7.9375 -0.0625 13.171875q-0.0625 5.234375 -0.390625 10.578125q0 0.234375 -0.359375 0.6875q-0.171875 0.21875 -0.3125 0.359375q-0.046875 0.09375 -0.140625 0.140625q-0.09375 0.046875 -0.140625 0.09375q-0.03125 -0.046875 -0.3125 -0.109375q-0.265625 -0.078125 -0.453125 -0.078125l-0.140625 0.09375q-0.078125 0.09375 -0.171875 0.09375q-1.8125 0.3125 -5.71875 0.3125l-1.984375 0q-1.140625 0 -2.0 -0.1875q-0.3125 -0.21875 -0.6875 -1.125q-0.03125 -0.328125 -0.171875 -0.546875q-0.09375 -0.234375 -0.234375 -0.234375q-0.359375 0 -1.125 0.5q-0.09375 0.09375 -0.25 0.21875q-0.15625 0.109375 -0.296875 0.234375q-0.359375 0.28125 -0.5 0.453125q-1.21875 0.6875 -2.90625 1.0q-1.125 0.28125 -2.078125 0.28125q-1.046875 0 -1.546875 0.046875zm48.106262 -0.1875q-2.0 -1.953125 -3.40625 -3.9375q-1.0 -1.328125 -3.078125 -4.671875l-0.78125 -1.234375q-0.046875 -0.046875 -0.0625 -0.0625q-0.015625 -0.015625 -0.015625 -0.015625l-0.234375 0l-0.1875 0.078125q-0.03125 0.59375 -0.03125 3.171875q0 1.6875 -0.1875 3.953125l-0.046875 1.359375q-0.1875 0.5 -0.21875 0.5l-0.328125 0l-0.125 0q-5.0 0.359375 -7.265625 0.359375l-0.671875 0l-0.859375 0q-0.5 0 -0.734375 -0.046875l-0.3125 0l-1.40625 -0.453125l-0.09375 -0.3125q-0.09375 0 -0.109375 -0.171875q-0.015625 -0.1875 -0.015625 -0.28125q-0.140625 -1.90625 -0.234375 -2.765625q-0.1875 -2.453125 -0.21875 -3.578125q-0.09375 -1.09375 -0.09375 -1.40625l-0.234375 -2.5l-0.046875 -1.359375q-0.046875 -0.40625 -0.046875 -1.125l0 -0.421875q0.09375 -0.21875 0.09375 -0.71875l0 -0.765625q0.046875 -0.1875 0.046875 -0.40625l-0.046875 -0.375l0 -0.453125q0 -0.3125 -0.09375 -0.484375l0 -0.28125l0.046875 -1.125q0.046875 -0.328125 0.046875 -0.953125q0.09375 -1.359375 0.09375 -2.59375l0 -0.453125q-0.046875 -0.125 -0.046875 -0.578125l0 -0.640625l0 -0.453125q-0.140625 -0.140625 -0.140625 -0.265625q0 -0.640625 1.140625 -0.90625q0.59375 -0.1875 1.671875 -0.1875q10.609375 0 15.875 0.71875q5.15625 0.734375 7.25 2.5q0.90625 0.859375 1.28125 2.015625q0.390625 1.15625 0.390625 2.75q0 2.53125 -1.453125 4.25q-0.953125 0.953125 -2.21875 1.59375q0.28125 0.671875 1.59375 2.71875q0.265625 0.3125 0.515625 0.6875q0.25 0.359375 0.609375 0.765625q0.859375 1.171875 2.0 2.578125q0.046875 0.1875 0.359375 0.765625q0.234375 0.09375 0.25 0.21875q0.03125 0.109375 -0.0625 0.28125q-0.375 0.546875 -2.140625 1.59375q-0.21875 0.21875 -0.53125 0.453125q-0.90625 0.71875 -2.5 1.484375q-1.453125 0.78125 -2.5 1.09375q-0.40625 0.234375 -0.484375 0.09375zm-8.25 -15.953125q0.578125 0 1.578125 -0.234375q0.953125 -0.265625 1.359375 -0.546875q0.6875 -0.40625 1.1875 -0.90625q0.484375 -0.578125 0.484375 -1.359375q0 -1.265625 -0.765625 -2.03125q-0.671875 -0.546875 -1.671875 -0.546875l-1.953125 0q0 0.59375 -0.09375 1.859375l-0.046875 0.953125q-0.078125 0.90625 -0.078125 2.8125zm21.746124 15.5q-0.859375 0 -0.671875 -1.546875q0 -0.546875 0.21875 -1.21875q0 -0.3125 0.046875 -0.515625q0.046875 -0.203125 0.046875 -0.34375q1.046875 -4.9375 2.3125 -9.75l3.078125 -12.0625q0 -0.078125 0.140625 -0.21875q0.140625 -0.140625 0.265625 -0.234375l0.328125 0q0.546875 0 0.859375 -0.125q0.265625 -0.046875 0.953125 -0.046875q1.078125 0 1.625 0.046875q0.8125 0.125 1.6875 0.125l2.34375 -0.03125q0.375 -0.09375 0.859375 -0.09375l2.0 -0.09375l1.5 0q0.859375 0 1.671875 0.046875l1.265625 0q0.453125 0.046875 1.328125 0.046875l1.71875 0q0.125 0 0.265625 0.046875q0.140625 0.046875 0.234375 0.078125q0.171875 0.09375 0.453125 0.09375l0.40625 0q0.3125 0.234375 0.3125 0.453125l3.21875 11.96875q1.5 5.765625 2.359375 9.75q0 0.21875 0.140625 0.859375q0.171875 0.90625 0.171875 1.453125q0 0.3125 -0.09375 0.859375q-0.21875 0.453125 -0.625 0.453125l-0.5 0q-0.59375 0 -0.90625 -0.046875l-1.0 0l-0.953125 0l-0.765625 0q-0.3125 0 -0.359375 -0.046875l-2.5 0l-0.046875 -0.09375q-0.09375 -0.09375 -0.265625 -0.09375l-0.140625 0.09375q0 0.09375 -0.09375 0.09375l-0.125 0l-0.328125 0q-0.21875 -0.09375 -0.8125 -0.09375q-1.09375 -0.09375 -1.8125 -0.09375q-0.5 -1.03125 -1.171875 -4.578125q-0.953125 0.140625 -2.1875 0.140625l-1.171875 0l-1.140625 0q-0.171875 0.6875 -0.21875 1.140625q-0.046875 0.21875 -0.375 1.53125q-0.3125 1.3125 -0.578125 1.765625l-0.265625 0.09375q-0.140625 0.046875 -0.234375 0.078125q-0.09375 0.015625 -0.09375 0.015625l-0.09375 0q-0.265625 0 -0.359375 -0.09375q-0.171875 -0.09375 -0.21875 -0.09375l-1.734375 0.09375l-1.265625 0q-0.21875 0.046875 -0.359375 0.078125q-0.140625 0.015625 -0.1875 0.015625l-3.625 0l-0.359375 0q-0.40625 0.046875 -1.671875 0.046875l-1.09375 0q-0.265625 0.046875 -0.859375 0.046875l-0.546875 0zm18.21875 -9.703125q-0.265625 -1.546875 -0.3125 -1.8125l-0.359375 -2.171875q-0.09375 -0.640625 -0.1875 -1.15625q-0.078125 -0.53125 -0.125 -0.984375q-0.140625 -0.53125 -0.21875 -1.0q-0.0625 -0.484375 -0.15625 -0.890625q-0.03125 -0.28125 -0.078125 -0.703125q-0.046875 -0.4375 -0.140625 -0.625l-0.09375 -0.53125q0 -0.1875 -0.09375 -0.328125l-0.046875 -0.265625q-0.078125 0.265625 -0.078125 0.265625l0 0.1875l0 0.140625q0 0.046875 -0.046875 0.15625q-0.046875 0.109375 -0.09375 0.375q-0.046875 0.234375 -0.09375 0.578125q-0.046875 0.34375 -0.140625 0.75l-0.3125 1.859375l-0.359375 2.078125l-0.140625 1.0q-0.09375 0.359375 -0.171875 1.171875q-0.421875 2.046875 -0.375 1.859375l2.0 0q0.046875 -0.046875 0.140625 -0.109375q0.09375 -0.0625 0.125 -0.0625l0.140625 0q0.234375 0 0.390625 0.046875q0.15625 0.03125 0.296875 0.078125q0.265625 0.09375 0.53125 0.09375zm31.140747 9.796875l-2.078125 0l-2.359375 0l-2.984375 0q-0.40625 -0.640625 -0.546875 -2.3125q-0.1875 -1.5 -0.1875 -4.359375l0.046875 -4.984375q0.046875 -1.8125 0.046875 -5.75l-0.140625 -0.140625l-4.484375 0q-1.0 0 -1.3125 -2.265625q-0.1875 -1.21875 -0.1875 -3.578125l0 -0.59375q0.09375 -0.3125 0.09375 -1.0l0 -0.90625l0.046875 -0.359375l0.1875 -0.1875l0.8125 0.046875l0.90625 0q2.0 0 3.03125 -0.046875l2.953125 0l0.8125 0l1.546875 0l1.953125 0l1.9375 0q0.59375 0.046875 1.6875 0.046875l1.125 0q0.1875 -0.078125 0.59375 -0.078125q0.3125 -0.09375 0.59375 -0.09375q0.859375 0 1.3125 0.09375q0.90625 0.078125 1.359375 0.078125l1.171875 -0.046875l1.765625 0q1.359375 0 1.859375 0.046875l0.640625 0.046875q0.046875 0.046875 0.125 0.125q0.09375 0.0625 0.09375 0.109375l0 7.703125q0 0.265625 -0.296875 0.59375q-0.28125 0.3125 -0.5625 0.40625q-1.5 -0.328125 -3.890625 -0.328125l-1.734375 0q-0.671875 0 -0.90625 1.734375q-0.078125 0.5 -0.078125 1.4375l0 1.375q0 0.90625 0.046875 1.359375l0 1.265625q0 1.859375 -0.1875 3.4375q-0.09375 1.1875 -0.09375 1.71875q-0.09375 0.546875 -0.09375 1.5q0 1.359375 -0.078125 2.265625q-0.046875 1.40625 -1.046875 1.5q-1.09375 0.140625 -1.265625 0.140625l-2.234375 0zm18.130554 -0.328125q-0.078125 0 -0.125 -0.171875q-0.328125 -0.40625 -0.453125 -1.0q-0.140625 -0.234375 -0.234375 -0.59375q-0.40625 -0.8125 -0.578125 -2.265625q-0.1875 -2.078125 -0.1875 -3.3125q-0.046875 -0.53125 -0.046875 -1.484375l0 -1.09375q0 -1.359375 -0.046875 -2.125q-0.046875 -0.8125 -0.046875 -3.21875q0 -6.4375 0.28125 -9.9375q0 -0.53125 1.53125 -0.8125l1.359375 0l1.140625 0q2.578125 0 3.84375 0.09375q1.90625 0.140625 3.859375 0.140625q0.453125 0 0.6875 -0.046875l0.671875 0l0.234375 0.171875q1.484375 -0.3125 3.0625 -0.390625q1.59375 -0.09375 3.859375 -0.09375q0.09375 0 0.234375 0.125l1.453125 0q0.359375 0 0.5625 0.40625q0.203125 0.40625 0.34375 1.1875q0.171875 0.578125 0.265625 1.453125q0.1875 1.125 0.3125 1.484375q0 1.28125 -0.453125 1.28125q-0.03125 0 -0.125 -0.140625l-0.1875 -0.046875q-0.21875 -0.046875 -0.5 0.046875q-0.265625 0.140625 -0.578125 0.140625q-0.28125 0 -0.453125 -0.140625q-0.09375 -0.046875 -0.421875 -0.046875q-0.40625 0 -0.9375 0.140625q-0.1875 0.046875 -0.71875 0.140625q-0.515625 0.078125 -1.1875 0.078125q-1.953125 0 -2.8125 0.09375q-0.5 0.046875 -0.953125 0.265625l0 -0.078125q-0.1875 0 -0.3125 0.453125q-0.328125 0.765625 -0.421875 2.125q-0.03125 0.40625 -0.03125 0.90625q0 0.5 0.15625 0.6875q0.15625 0.171875 0.515625 0.171875q0.265625 0 0.453125 -0.1875q0.09375 0 0.21875 0.046875q0.140625 0.046875 0.234375 0.140625l3.859375 0q0.046875 -0.09375 0.125 -0.140625q0.09375 -0.046875 0.1875 -0.046875q0.453125 0 0.6875 0.140625q0.265625 0.140625 1.078125 0.28125q0.453125 0 0.640625 0.265625q0.21875 0.3125 0.21875 0.59375l0.953125 2.984375q0.140625 0.734375 -1.359375 0.953125q-0.859375 0.1875 -3.3125 0.1875l-1.9375 0l-1.359375 0q-0.640625 0 -0.96875 0.0625q-0.3125 0.0625 -0.390625 0.34375q-0.1875 0.21875 -0.1875 0.71875l0 0.1875q0 0.21875 0.046875 0.3125l-0.046875 1.0q-0.046875 0.3125 -0.046875 0.953125l0 0.453125l0 0.40625l0 0.265625q2.046875 0 4.171875 -0.125q2.078125 -0.140625 4.125 -0.140625q0.140625 0 0.21875 0.203125q0.09375 0.203125 0.09375 0.46875q0.09375 0.28125 0.09375 0.59375q0.09375 0.6875 0.265625 1.265625l0.328125 1.328125l0 0.90625l0 0.125l0 0.359375l-0.359375 0.328125l-0.328125 0l-0.125 0q-0.5 0 -0.640625 -0.046875q-0.140625 -0.09375 -0.3125 -0.09375q-0.09375 0.046875 -0.28125 0.140625q-0.171875 0.09375 -0.3125 0.171875l0 -0.21875l-0.546875 0.046875l-0.671875 0q-0.1875 0 -0.28125 -0.09375l-0.359375 -0.046875q-1.671875 0 -2.359375 0.3125l-14.375 0zm34.145813 0.1875q-1.734375 -0.046875 -5.9375 -0.046875q-0.640625 0 -0.875 -0.8125q-0.125 -0.453125 -0.125 -1.59375q0 -2.03125 -0.09375 -3.578125q0 -1.40625 -0.09375 -5.125l-0.046875 -5.4375l0 -8.5625q0 -0.3125 0.34375 -0.671875q0.34375 -0.375 0.65625 -0.375l2.625 0.046875q0.640625 0.046875 1.859375 0.046875q1.3125 0.046875 3.265625 0.046875q2.90625 0 4.53125 -0.046875q1.59375 -0.09375 5.3125 -0.09375q2.53125 0 4.65625 0.90625q2.6875 1.140625 4.265625 3.546875q1.8125 2.796875 1.8125 7.296875q0 4.03125 -0.890625 6.75q-0.875 2.71875 -2.828125 4.390625q-1.984375 1.71875 -5.234375 2.515625q-3.234375 0.796875 -8.09375 0.796875l-5.109375 0zm5.4375 -5.125q1.0 0 1.3125 -0.09375q0.3125 -0.078125 0.453125 -0.21875q0.671875 -0.6875 1.265625 -4.03125q0.5 -3.125 0.5 -5.859375l0 -0.71875q0 -1.578125 -0.21875 -3.03125q-0.1875 -1.765625 -0.734375 -2.90625q-0.3125 -0.5 -0.8125 -0.5q-0.40625 0 -1.0 0.234375l-0.3125 0.125q0 1.046875 -0.09375 4.671875l-0.046875 2.8125q0 0.90625 -0.046875 1.40625l-0.046875 1.40625l-0.21875 6.703125z" fill-rule="nonzero"/><path fill="#000000" d="m391.60712 463.88803q-0.34375 0 -0.609375 -0.09375q-1.296875 -0.78125 -2.171875 -1.734375q-0.25 -0.4375 -0.34375 -0.4375q-0.078125 -0.171875 -0.25 -0.171875l-0.1875 -0.078125q-0.34375 -0.34375 -0.34375 -0.34375l-7.359375 -10.921875q-0.515625 -1.125 -1.46875 -2.4375q-0.609375 -0.59375 -1.046875 -1.296875q-0.34375 -0.515625 -0.6875 -0.515625q-0.265625 0 -0.40625 0.265625q-0.125 0.25 -0.203125 0.6875q-0.265625 2.34375 -0.265625 6.328125q0 3.8125 -0.421875 6.15625q-0.265625 1.125 -0.78125 1.125l-0.53125 0q-0.171875 -0.09375 -0.296875 -0.125q-0.125 -0.046875 -0.125 -0.046875q-3.046875 0.25 -9.109375 0.59375q-5.890625 0.359375 -9.015625 0.359375q-0.859375 0 -1.375 -0.171875l-1.90625 0l-1.5625 0l-0.78125 0l-3.125 -1.046875l-0.25 -0.6875q0 -0.09375 -0.046875 -0.34375q-0.046875 -0.265625 -0.046875 -0.703125q0 -0.515625 -0.171875 -1.90625q-0.4375 -5.28125 -0.34375 -4.15625q-0.171875 -2.25 -0.609375 -7.796875l-0.265625 -3.203125q0 -1.5625 -0.09375 -2.78125q-0.078125 -1.21875 -0.15625 -2.078125l-0.171875 -1.90625q-0.265625 -3.546875 -0.265625 -6.671875q0 -0.09375 0.046875 -0.265625q0.046875 -0.171875 0.046875 -0.6875q0.171875 -0.515625 0.171875 -1.65625l0.078125 -1.546875l0.09375 -1.046875q0 -1.8125 -0.171875 -5.28125q-0.359375 -2.171875 -0.359375 -5.546875q0 -4.859375 0.609375 -7.109375q0.78125 -3.125 2.609375 -3.125q9.78125 0 19.921875 0.265625q2.25 0 6.765625 0.171875l3.375 0.09375q6.9375 0.171875 9.625 0.171875q11.171875 0.515625 16.890625 5.625q2.609375 2.171875 3.859375 5.203125q1.25 3.03125 1.25 6.5q0 3.984375 -1.46875 7.359375q-1.203125 2.6875 -3.46875 4.953125q-2.15625 2.15625 -4.9375 3.453125q0.515625 0.265625 1.390625 1.125q0.34375 0.4375 1.21875 1.140625l1.203125 0.859375q0.265625 0.4375 0.609375 0.828125q0.34375 0.390625 0.6875 0.8125l4.078125 5.03125q2.78125 3.546875 3.546875 5.203125q0.609375 1.125 0.609375 1.734375q0 0.859375 -0.6875 1.5625q-0.6875 0.6875 -2.078125 1.734375q-1.046875 0.765625 -2.421875 1.46875q-1.3125 0.6875 -2.0 1.296875l-3.203125 1.734375q-1.734375 0.953125 -3.734375 1.640625q-0.078125 0 -0.21875 0.078125q-0.125 0.09375 -0.390625 0.1875q-0.515625 0.265625 -2.859375 0.953125q-0.421875 0.265625 -1.46875 0.4375q-0.25 0.171875 -0.609375 0.25q-0.34375 0.09375 -0.515625 0.09375l-0.4375 0q-0.078125 0.4375 -0.34375 0.4375l-0.25 0l-0.265625 0zm-14.21875 -30.59375q2.6875 0 4.25 -2.6875q1.46875 -2.421875 1.640625 -5.546875q0.1875 -1.828125 0.1875 -4.328125l0 -0.953125q0 -2.0 -0.703125 -4.171875q-0.6875 -2.765625 -2.859375 -3.984375q-0.953125 -0.78125 -2.515625 -0.78125q-0.421875 0 -0.6875 1.046875q-0.78125 1.90625 -0.859375 6.0625q-0.359375 1.734375 -0.359375 4.078125l-0.078125 2.59375q-0.171875 5.03125 -0.171875 8.328125q0 0.078125 0.078125 0.171875q0.09375 0.078125 0.171875 0.078125l0.609375 0.09375l1.296875 0z" fill-rule="nonzero"/><path fill="#000000" d="m420.03934 460.7474q-0.078125 0 -0.125 -0.171875q-0.328125 -0.40625 -0.453125 -1.0q-0.140625 -0.234375 -0.234375 -0.59375q-0.40625 -0.8125 -0.578125 -2.265625q-0.1875 -2.078125 -0.1875 -3.3125q-0.046875 -0.53125 -0.046875 -1.484375l0 -1.09375q0 -1.359375 -0.046875 -2.125q-0.046875 -0.8125 -0.046875 -3.21875q0 -6.4375 0.28125 -9.9375q0 -0.53125 1.53125 -0.8125l1.359375 0l1.140625 0q2.578125 0 3.84375 0.09375q1.90625 0.140625 3.859375 0.140625q0.453125 0 0.6875 -0.046875l0.671875 0l0.234375 0.171875q1.484375 -0.3125 3.0625 -0.390625q1.59375 -0.09375 3.859375 -0.09375q0.09375 0 0.234375 0.125l1.453125 0q0.359375 0 0.5625 0.40625q0.203125 0.40625 0.34375 1.1875q0.171875 0.578125 0.265625 1.453125q0.1875 1.125 0.3125 1.484375q0 1.28125 -0.453125 1.28125q-0.03125 0 -0.125 -0.140625l-0.1875 -0.046875q-0.21875 -0.046875 -0.5 0.046875q-0.265625 0.140625 -0.578125 0.140625q-0.28125 0 -0.453125 -0.140625q-0.09375 -0.046875 -0.421875 -0.046875q-0.40625 0 -0.9375 0.140625q-0.1875 0.046875 -0.71875 0.140625q-0.515625 0.078125 -1.1875 0.078125q-1.953125 0 -2.8125 0.09375q-0.5 0.046875 -0.953125 0.265625l0 -0.078125q-0.1875 0 -0.3125 0.453125q-0.328125 0.765625 -0.421875 2.125q-0.03125 0.40625 -0.03125 0.90625q0 0.5 0.15625 0.6875q0.15625 0.171875 0.515625 0.171875q0.265625 0 0.453125 -0.1875q0.09375 0 0.21875 0.046875q0.140625 0.046875 0.234375 0.140625l3.859375 0q0.046875 -0.09375 0.125 -0.140625q0.09375 -0.046875 0.1875 -0.046875q0.453125 0 0.6875 0.140625q0.265625 0.140625 1.078125 0.28125q0.453125 0 0.640625 0.265625q0.21875 0.3125 0.21875 0.59375l0.953125 2.984375q0.140625 0.734375 -1.359375 0.953125q-0.859375 0.1875 -3.3125 0.1875l-1.9375 0l-1.359375 0q-0.640625 0 -0.96875 0.0625q-0.3125 0.0625 -0.390625 0.34375q-0.1875 0.21875 -0.1875 0.71875l0 0.1875q0 0.21875 0.046875 0.3125l-0.046875 1.0q-0.046875 0.3125 -0.046875 0.953125l0 0.453125l0 0.40625l0 0.265625q2.046875 0 4.171875 -0.125q2.078125 -0.140625 4.125 -0.140625q0.140625 0 0.21875 0.203125q0.09375 0.203125 0.09375 0.46875q0.09375 0.28125 0.09375 0.59375q0.09375 0.6875 0.265625 1.265625l0.328125 1.328125l0 0.90625l0 0.125l0 0.359375l-0.359375 0.328125l-0.328125 0l-0.125 0q-0.5 0 -0.640625 -0.046875q-0.140625 -0.09375 -0.3125 -0.09375q-0.09375 0.046875 -0.28125 0.140625q-0.171875 0.09375 -0.3125 0.171875l0 -0.21875l-0.546875 0.046875l-0.671875 0q-0.1875 0 -0.28125 -0.09375l-0.359375 -0.046875q-1.671875 0 -2.359375 0.3125l-14.375 0zm38.177094 1.234375q-2.90625 0 -5.390625 -1.40625q-2.90625 -1.453125 -4.578125 -4.359375q-1.90625 -3.34375 -1.90625 -8.15625q0 -3.3125 1.1875 -5.984375q1.203125 -2.671875 3.390625 -4.53125q2.125 -1.8125 5.015625 -2.765625q2.90625 -0.953125 6.3125 -0.953125q4.84375 0 10.375 2.59375l-1.578125 6.65625q-0.8125 -0.1875 -1.5 -0.40625q-1.765625 -0.5 -3.21875 -0.734375q-1.0 -0.171875 -1.546875 -0.171875q-2.34375 0 -3.671875 1.3125q-1.53125 1.625 -1.53125 5.21875q0 3.03125 0.953125 4.65625q0.90625 1.28125 2.40625 1.28125q1.21875 0 2.34375 -0.5q-0.046875 -0.453125 -0.09375 -1.0625q-0.03125 -0.625 -0.03125 -1.4375q-0.1875 -1.625 -0.375 -2.3125l0 -1.765625q0 -0.3125 0.28125 -0.3125l0.21875 0q0.140625 0 0.265625 -0.046875q0.140625 -0.046875 0.28125 -0.046875q0.453125 -0.09375 0.546875 -0.09375q0.3125 0 0.859375 0.09375q0.1875 0 0.40625 0.046875q0.234375 0.046875 0.453125 0.046875q0.1875 -0.1875 1.140625 -0.1875q0.71875 0 1.125 -0.046875q0.28125 -0.09375 0.6875 -0.09375l0.546875 -0.125q0.40625 0.046875 1.171875 0.046875q0.3125 0.046875 0.859375 0.046875q0.140625 0 0.21875 0.015625q0.09375 0.015625 0.140625 0.015625l1.0 0l0.1875 0.09375l0 1.28125q0.046875 0.21875 0.046875 0.671875l0 0.640625l0 1.171875l0 3.984375l0 0.1875q-0.046875 0.140625 -0.046875 0.359375q-0.046875 0.1875 -0.046875 0.40625l0 0.234375q0 2.40625 -0.09375 3.390625q-0.09375 1.5 -0.3125 2.046875q-0.953125 0 -1.5 0.09375l-0.90625 0l-0.09375 0l-0.40625 0l-0.046875 -0.09375l-0.171875 0.09375l-3.953125 0l-0.171875 0l-0.40625 0l-0.46875 0q-0.078125 0.046875 -0.3125 0.046875q-0.3125 0 -0.453125 -0.90625q-0.21875 -1.0 -0.21875 -2.359375q-0.453125 1.984375 -2.5 3.078125q-2.0 1.046875 -4.890625 1.046875zm23.423859 -0.453125q-0.8125 0 -1.03125 -1.640625q-0.140625 -0.671875 -0.140625 -1.21875q0 -0.71875 -0.046875 -0.90625q-0.046875 -1.3125 -0.21875 -4.171875l-0.140625 -1.71875q-0.265625 -3.984375 -0.265625 -5.890625l0 -11.015625q0 -0.359375 0.8125 -0.546875q0.453125 -0.140625 1.265625 -0.140625q0.546875 0 1.171875 0.078125q0.640625 0.0625 0.953125 0.0625q0.6875 0.09375 2.140625 0.09375l0.171875 -0.140625l2.0 0q0.140625 0.140625 0.3125 0.140625l0.1875 0q0.046875 -0.046875 0.21875 -0.046875q0.09375 -0.046875 0.28125 -0.046875q0.046875 -0.046875 0.078125 -0.046875q0.046875 0 0.046875 0q0.140625 0 0.3125 0.078125q0.1875 0.0625 0.28125 0.0625l3.359375 0l0.140625 7.796875q0 0.046875 -0.078125 0.296875q-0.0625 0.25 -0.109375 0.65625q-0.140625 1.625 -0.140625 2.578125l0 8.84375l-0.125 1.71875q-0.140625 1.125 -0.09375 1.859375q0 0.953125 -0.078125 1.515625q-0.0625 0.5625 -0.28125 0.890625q-0.28125 0.3125 -0.875 0.3125l-0.03125 -0.046875l-0.140625 -0.046875q-0.09375 0 -0.09375 0.046875l-0.21875 0q-0.28125 0.09375 -0.328125 0.140625q-0.21875 0 -1.046875 -0.140625l-0.625 -0.046875q-0.234375 0 -0.28125 0.1875l-3.390625 0l-0.640625 0l-1.171875 0.21875l-1.09375 0.140625l-1.046875 0.09375zm22.176758 0.3125l-1.046875 -0.1875q-1.5 -0.21875 -2.5 -0.53125q-0.53125 -0.046875 -0.9375 -0.328125q-0.375 -0.125 -0.453125 -0.359375l-1.0 -5.625l0 -0.21875q0 -0.3125 0.0625 -0.46875q0.0625 -0.171875 0.296875 -0.21875q2.953125 1.140625 5.796875 1.140625q0.90625 0 1.40625 0.046875q1.71875 0 2.5 -0.453125q0.40625 -0.28125 0.40625 -0.78125q0 -0.71875 -0.453125 -1.1875q-0.453125 -0.484375 -1.3125 -0.84375l-1.453125 -0.546875q-0.640625 -0.140625 -1.453125 -0.5q0 -0.046875 -0.046875 -0.0625q-0.046875 -0.03125 -0.09375 -0.109375q-0.171875 -0.046875 -0.765625 -0.453125l-0.265625 -0.140625q0.078125 0 0.078125 -0.046875q0 -0.046875 -0.125 -0.09375q-0.140625 -0.09375 -0.53125 -0.296875q-0.375 -0.203125 -0.65625 -0.46875q-0.40625 -0.234375 -0.40625 -0.546875l0 -0.21875q-1.125 0 -1.953125 -2.359375q-0.671875 -2.40625 -0.671875 -3.40625q0 -4.21875 3.625 -6.484375q2.953125 -1.859375 8.109375 -2.484375q3.3593445 -0.375 8.3437195 -0.375q0.640625 0.234375 1.0 0.28125q0.8125 0.046875 1.09375 0.546875q0.125 0.21875 0.21875 0.90625q0.140625 0.71875 0.265625 4.21875q0.09375 0.078125 0.09375 0.265625q0 0.359375 -1.0 0.59375q-1.078125 0.125 -1.390625 0.125l-1.046875 0.140625q-1.765625 0.234375 -2.3125 0.3125q-1.859375 0.328125 -2.59375 1.140625q-0.453125 0.546875 -0.453125 1.125q0 0.328125 0.09375 0.515625q0.09375 0.171875 0.453125 0.390625q0.40625 0.234375 2.359375 1.140625q2.09375 0.90625 4.171875 2.359375q1.765625 1.21875 2.53125 3.265625q0.421875 0.859375 0.421875 2.265625q0 1.265625 -0.328125 2.171875q-1.171875 2.984375 -4.4375 4.890625q-1.546875 0.90625 -3.21875 1.421875q-1.671875 0.53125 -3.2187195 0.53125l-6.65625 0.140625l-0.546875 -0.140625zm36.0253 -0.765625l-2.078125 0l-2.359375 0l-2.984375 0q-0.40625 -0.640625 -0.546875 -2.3125q-0.1875 -1.5 -0.1875 -4.359375l0.046875 -4.984375q0.046875 -1.8125 0.046875 -5.75l-0.140625 -0.140625l-4.484375 0q-1.0 0 -1.3125 -2.265625q-0.1875 -1.21875 -0.1875 -3.578125l0 -0.59375q0.09375 -0.3125 0.09375 -1.0l0 -0.90625l0.046875 -0.359375l0.1875 -0.1875l0.8125 0.046875l0.90625 0q2.0 0 3.03125 -0.046875l2.953125 0l0.8125 0l1.546875 0l1.953125 0l1.9375 0q0.59375 0.046875 1.6875 0.046875l1.125 0q0.1875 -0.078125 0.59375 -0.078125q0.3125 -0.09375 0.59375 -0.09375q0.859375 0 1.3125 0.09375q0.90625 0.078125 1.359375 0.078125l1.171875 -0.046875l1.765625 0q1.359375 0 1.859375 0.046875l0.640625 0.046875q0.046875 0.046875 0.125 0.125q0.09375 0.0625 0.09375 0.109375l0 7.703125q0 0.265625 -0.296875 0.59375q-0.28125 0.3125 -0.5625 0.40625q-1.5 -0.328125 -3.890625 -0.328125l-1.734375 0q-0.671875 0 -0.90625 1.734375q-0.078125 0.5 -0.078125 1.4375l0 1.375q0 0.90625 0.046875 1.359375l0 1.265625q0 1.859375 -0.1875 3.4375q-0.09375 1.1875 -0.09375 1.71875q-0.09375 0.546875 -0.09375 1.5q0 1.359375 -0.078125 2.265625q-0.046875 1.40625 -1.046875 1.5q-1.09375 0.140625 -1.265625 0.140625l-2.234375 0zm37.36493 0.359375q-2.0 -1.953125 -3.40625 -3.9375q-1.0 -1.328125 -3.078125 -4.671875l-0.78125 -1.234375q-0.046875 -0.046875 -0.0625 -0.0625q-0.015625 -0.015625 -0.015625 -0.015625l-0.234375 0l-0.1875 0.078125q-0.03125 0.59375 -0.03125 3.171875q0 1.6875 -0.1875 3.953125l-0.046875 1.359375q-0.1875 0.5 -0.21875 0.5l-0.328125 0l-0.125 0q-5.0 0.359375 -7.265625 0.359375l-0.671875 0l-0.859375 0q-0.5 0 -0.734375 -0.046875l-0.3125 0l-1.40625 -0.453125l-0.09375 -0.3125q-0.09375 0 -0.109375 -0.171875q-0.015625 -0.1875 -0.015625 -0.28125q-0.140625 -1.90625 -0.234375 -2.765625q-0.1875 -2.453125 -0.21875 -3.578125q-0.09375 -1.09375 -0.09375 -1.40625l-0.234375 -2.5l-0.046875 -1.359375q-0.046875 -0.40625 -0.046875 -1.125l0 -0.421875q0.09375 -0.21875 0.09375 -0.71875l0 -0.765625q0.046875 -0.1875 0.046875 -0.40625l-0.046875 -0.375l0 -0.453125q0 -0.3125 -0.09375 -0.484375l0 -0.28125l0.046875 -1.125q0.046875 -0.328125 0.046875 -0.953125q0.09375 -1.359375 0.09375 -2.59375l0 -0.453125q-0.046875 -0.125 -0.046875 -0.578125l0 -0.640625l0 -0.453125q-0.140625 -0.140625 -0.140625 -0.265625q0 -0.640625 1.140625 -0.90625q0.59375 -0.1875 1.671875 -0.1875q10.609375 0 15.875 0.71875q5.15625 0.734375 7.25 2.5q0.90625 0.859375 1.28125 2.015625q0.390625 1.15625 0.390625 2.75q0 2.53125 -1.453125 4.25q-0.953125 0.953125 -2.21875 1.59375q0.28125 0.671875 1.59375 2.71875q0.265625 0.3125 0.515625 0.6875q0.25 0.359375 0.609375 0.765625q0.859375 1.171875 2.0 2.578125q0.046875 0.1875 0.359375 0.765625q0.234375 0.09375 0.25 0.21875q0.03125 0.109375 -0.0625 0.28125q-0.375 0.546875 -2.140625 1.59375q-0.21875 0.21875 -0.53125 0.453125q-0.90625 0.71875 -2.5 1.484375q-1.453125 0.78125 -2.5 1.09375q-0.40625 0.234375 -0.484375 0.09375zm-8.25 -15.953125q0.578125 0 1.578125 -0.234375q0.953125 -0.265625 1.359375 -0.546875q0.6875 -0.40625 1.1875 -0.90625q0.484375 -0.578125 0.484375 -1.359375q0 -1.265625 -0.765625 -2.03125q-0.671875 -0.546875 -1.671875 -0.546875l-1.953125 0q0 0.59375 -0.09375 1.859375l-0.046875 0.953125q-0.078125 0.90625 -0.078125 2.8125zm23.011719 16.046875q-0.8125 0 -1.03125 -1.640625q-0.140625 -0.671875 -0.140625 -1.21875q0 -0.71875 -0.046875 -0.90625q-0.046875 -1.3125 -0.21875 -4.171875l-0.140625 -1.71875q-0.265625 -3.984375 -0.265625 -5.890625l0 -11.015625q0 -0.359375 0.8125 -0.546875q0.453125 -0.140625 1.265625 -0.140625q0.546875 0 1.171875 0.078125q0.640625 0.0625 0.953125 0.0625q0.6875 0.09375 2.140625 0.09375l0.171875 -0.140625l2.0 0q0.140625 0.140625 0.3125 0.140625l0.1875 0q0.046875 -0.046875 0.21875 -0.046875q0.09375 -0.046875 0.28125 -0.046875q0.046875 -0.046875 0.078125 -0.046875q0.046875 0 0.046875 0q0.140625 0 0.3125 0.078125q0.1875 0.0625 0.28125 0.0625l3.359375 0l0.140625 7.796875q0 0.046875 -0.078125 0.296875q-0.0625 0.25 -0.109375 0.65625q-0.140625 1.625 -0.140625 2.578125l0 8.84375l-0.125 1.71875q-0.140625 1.125 -0.09375 1.859375q0 0.953125 -0.078125 1.515625q-0.0625 0.5625 -0.28125 0.890625q-0.28125 0.3125 -0.875 0.3125l-0.03125 -0.046875l-0.140625 -0.046875q-0.09375 0 -0.09375 0.046875l-0.21875 0q-0.28125 0.09375 -0.328125 0.140625q-0.21875 0 -1.046875 -0.140625l-0.625 -0.046875q-0.234375 0 -0.28125 0.1875l-3.390625 0l-0.640625 0l-1.171875 0.21875l-1.09375 0.140625l-1.046875 0.09375zm18.629883 -0.78125q-0.078125 0 -0.125 -0.171875q-0.328125 -0.40625 -0.453125 -1.0q-0.140625 -0.234375 -0.234375 -0.59375q-0.40625 -0.8125 -0.578125 -2.265625q-0.1875 -2.078125 -0.1875 -3.3125q-0.046875 -0.53125 -0.046875 -1.484375l0 -1.09375q0 -1.359375 -0.046875 -2.125q-0.046875 -0.8125 -0.046875 -3.21875q0 -6.4375 0.28125 -9.9375q0 -0.53125 1.53125 -0.8125l1.359375 0l1.140625 0q2.578125 0 3.84375 0.09375q1.90625 0.140625 3.859375 0.140625q0.453125 0 0.6875 -0.046875l0.671875 0l0.234375 0.171875q1.484375 -0.3125 3.0625 -0.390625q1.59375 -0.09375 3.859375 -0.09375q0.09375 0 0.234375 0.125l1.453125 0q0.359375 0 0.5625 0.40625q0.203125 0.40625 0.34375 1.1875q0.171875 0.578125 0.265625 1.453125q0.1875 1.125 0.3125 1.484375q0 1.28125 -0.453125 1.28125q-0.03125 0 -0.125 -0.140625l-0.1875 -0.046875q-0.21875 -0.046875 -0.5 0.046875q-0.265625 0.140625 -0.578125 0.140625q-0.28125 0 -0.453125 -0.140625q-0.09375 -0.046875 -0.421875 -0.046875q-0.40625 0 -0.9375 0.140625q-0.1875 0.046875 -0.71875 0.140625q-0.515625 0.078125 -1.1875 0.078125q-1.953125 0 -2.8125 0.09375q-0.5 0.046875 -0.953125 0.265625l0 -0.078125q-0.1875 0 -0.3125 0.453125q-0.328125 0.765625 -0.421875 2.125q-0.03125 0.40625 -0.03125 0.90625q0 0.5 0.15625 0.6875q0.15625 0.171875 0.515625 0.171875q0.265625 0 0.453125 -0.1875q0.09375 0 0.21875 0.046875q0.140625 0.046875 0.234375 0.140625l3.859375 0q0.046875 -0.09375 0.125 -0.140625q0.09375 -0.046875 0.1875 -0.046875q0.453125 0 0.6875 0.140625q0.265625 0.140625 1.078125 0.28125q0.453125 0 0.640625 0.265625q0.21875 0.3125 0.21875 0.59375l0.953125 2.984375q0.140625 0.734375 -1.359375 0.953125q-0.859375 0.1875 -3.3125 0.1875l-1.9375 0l-1.359375 0q-0.640625 0 -0.96875 0.0625q-0.3125 0.0625 -0.390625 0.34375q-0.1875 0.21875 -0.1875 0.71875l0 0.1875q0 0.21875 0.046875 0.3125l-0.046875 1.0q-0.046875 0.3125 -0.046875 0.953125l0 0.453125l0 0.40625l0 0.265625q2.046875 0 4.171875 -0.125q2.078125 -0.140625 4.125 -0.140625q0.140625 0 0.21875 0.203125q0.09375 0.203125 0.09375 0.46875q0.09375 0.28125 0.09375 0.59375q0.09375 0.6875 0.265625 1.265625l0.328125 1.328125l0 0.90625l0 0.125l0 0.359375l-0.359375 0.328125l-0.328125 0l-0.125 0q-0.5 0 -0.640625 -0.046875q-0.140625 -0.09375 -0.3125 -0.09375q-0.09375 0.046875 -0.28125 0.140625q-0.171875 0.09375 -0.3125 0.171875l0 -0.21875l-0.546875 0.046875l-0.671875 0q-0.1875 0 -0.28125 -0.09375l-0.359375 -0.046875q-1.671875 0 -2.359375 0.3125l-14.375 0zm32.239563 1.09375l-1.046875 -0.1875q-1.5 -0.21875 -2.5 -0.53125q-0.53125 -0.046875 -0.9375 -0.328125q-0.375 -0.125 -0.453125 -0.359375l-1.0 -5.625l0 -0.21875q0 -0.3125 0.0625 -0.46875q0.0625 -0.171875 0.296875 -0.21875q2.953125 1.140625 5.796875 1.140625q0.90625 0 1.40625 0.046875q1.71875 0 2.5 -0.453125q0.40625 -0.28125 0.40625 -0.78125q0 -0.71875 -0.453125 -1.1875q-0.453125 -0.484375 -1.3125 -0.84375l-1.453125 -0.546875q-0.640625 -0.140625 -1.453125 -0.5q0 -0.046875 -0.046875 -0.0625q-0.046875 -0.03125 -0.09375 -0.109375q-0.171875 -0.046875 -0.765625 -0.453125l-0.265625 -0.140625q0.078125 0 0.078125 -0.046875q0 -0.046875 -0.125 -0.09375q-0.140625 -0.09375 -0.53125 -0.296875q-0.375 -0.203125 -0.65625 -0.46875q-0.40625 -0.234375 -0.40625 -0.546875l0 -0.21875q-1.125 0 -1.953125 -2.359375q-0.671875 -2.40625 -0.671875 -3.40625q0 -4.21875 3.625 -6.484375q2.953125 -1.859375 8.109375 -2.484375q3.359375 -0.375 8.34375 -0.375q0.640625 0.234375 1.0 0.28125q0.8125 0.046875 1.09375 0.546875q0.125 0.21875 0.21875 0.90625q0.140625 0.71875 0.265625 4.21875q0.09375 0.078125 0.09375 0.265625q0 0.359375 -1.0 0.59375q-1.078125 0.125 -1.390625 0.125l-1.046875 0.140625q-1.765625 0.234375 -2.3125 0.3125q-1.859375 0.328125 -2.59375 1.140625q-0.453125 0.546875 -0.453125 1.125q0 0.328125 0.09375 0.515625q0.09375 0.171875 0.453125 0.390625q0.40625 0.234375 2.359375 1.140625q2.09375 0.90625 4.171875 2.359375q1.765625 1.21875 2.53125 3.265625q0.421875 0.859375 0.421875 2.265625q0 1.265625 -0.328125 2.171875q-1.171875 2.984375 -4.4375 4.890625q-1.546875 0.90625 -3.21875 1.421875q-1.671875 0.53125 -3.21875 0.53125l-6.65625 0.140625l-0.546875 -0.140625z" fill-rule="nonzero"/><path fill="#000000" fill-opacity="0.0" d="m339.62204 265.8819l314.26773 0" fill-rule="evenodd"/><path stroke="#000000" stroke-width="12.0" stroke-linejoin="round" stroke-linecap="butt" d="m339.62204 265.8819l314.26773 0" fill-rule="evenodd"/><path fill="#000000" fill-opacity="0.0" d="m339.62204 371.5433l314.26773 0" fill-rule="evenodd"/><path stroke="#000000" stroke-width="12.0" stroke-linejoin="round" stroke-linecap="butt" d="m339.62204 371.5433l314.26773 0" fill-rule="evenodd"/><path fill="#000000" fill-opacity="0.0" d="m344.15485 480.82416l314.2677 0" fill-rule="evenodd"/><path stroke="#000000" stroke-width="12.0" stroke-linejoin="round" stroke-linecap="butt" d="m344.15485 480.82416l314.2677 0" fill-rule="evenodd"/></g></svg>