<svg version="1.1" viewBox="0.0 0.0 960.0 720.0" fill="none" stroke="none" stroke-linecap="square" stroke-miterlimit="10" xmlns:xlink="http://www.w3.org/1999/xlink" xmlns="http://www.w3.org/2000/svg"><clipPath id="p.0"><path d="m0 0l960.0 0l0 720.0l-960.0 0l0 -720.0z" clip-rule="nonzero"/></clipPath><g clip-path="url(#p.0)"><path fill="#000000" fill-opacity="0.0" d="m0 0l960.0 0l0 720.0l-960.0 0z" fill-rule="evenodd"/><path fill="#000000" d="m314.6404 429.47244l0 -187.67088l0 0c0 -55.595673 45.069214 -100.66487 100.66489 -100.66487l159.98138 0l0 -21.459526l49.148987 33.553932l-49.148987 33.553925l0 -21.459518l-159.98138 0l0 0c-42.236572 0 -76.476074 34.239502 -76.476074 76.47606l0 187.67088z" fill-rule="evenodd"/><path stroke="#000000" stroke-width="1.0" stroke-linejoin="round" stroke-linecap="butt" d="m314.6404 429.47244l0 -187.67088l0 0c0 -55.595673 45.069214 -100.66487 100.66489 -100.66487l159.98138 0l0 -21.459526l49.148987 33.553932l-49.148987 33.553925l0 -21.459518l-159.98138 0l0 0c-42.236572 0 -76.476074 34.239502 -76.476074 76.47606l0 187.67088z" fill-rule="evenodd"/><path fill="#000000" d="m698.34644 219.64568l0 187.67088l0 0c0 55.595673 -45.069153 100.664856 -100.664856 100.664856l-159.98138 0l0 21.459503l-49.149017 -33.553894l49.149017 -33.553925l0 21.459503l159.98138 0l0 0c42.236572 0 76.476074 -34.239502 76.476074 -76.47604l0 -187.67088z" fill-rule="evenodd"/><path stroke="#000000" stroke-width="1.0" stroke-linejoin="round" stroke-linecap="butt" d="m698.34644 219.64568l0 187.67088l0 0c0 55.595673 -45.069153 100.664856 -100.664856 100.664856l-159.98138 0l0 21.459503l-49.149017 -33.553894l49.149017 -33.553925l0 21.459503l159.98138 0l0 0c42.236572 0 76.476074 -34.239502 76.476074 -76.47604l0 -187.67088z" fill-rule="evenodd"/><path fill="#000000" fill-opacity="0.0" d="m331.04462 195.92389l352.28345 0l0 259.62204l-352.28345 0z" fill-rule="evenodd"/><path fill="#000000" d="m412.41043 223.42741l0 20.25l-15.625 0l0 80.937485l-26.3125 0l0 -80.937485l-15.5625 0l0 -20.25l57.5 0z" fill-rule="nonzero"/><path fill="#000000" d="m464.50418 279.77115l0 16.9375q0 9.3125 -0.9375 13.671875q-0.9375 4.34375 -4.015625 8.125q-3.0625 3.765625 -7.890625 5.5625q-4.8125 1.796875 -11.0625 1.796875q-6.96875 0 -11.8125 -1.53125q-4.84375 -1.546875 -7.53125 -4.640625q-2.671875 -3.09375 -3.828125 -7.5q-1.140625 -4.40625 -1.140625 -13.203125l0 -17.703125q0 -9.640625 2.078125 -15.046875q2.09375 -5.421875 7.5 -8.703125q5.421875 -3.2812347 13.859375 -3.2812347q7.078125 0 12.15625 2.1093597q5.078125 2.109375 7.828125 5.5q2.765625 3.375 3.78125 6.96875q1.015625 3.59375 1.015625 10.9375zm-21.03125 -5.203125q0 -5.3125 -0.578125 -6.6875q-0.578125 -1.390625 -2.453125 -1.390625q-1.859375 0 -2.484375 1.390625q-0.625 1.375 -0.625 6.6875l0 31.1875q0 4.90625 0.625 6.390625q0.625 1.484375 2.4375 1.484375q1.875 0 2.46875 -1.359375q0.609375 -1.359375 0.609375 -5.828125l0 -31.875z" fill-rule="nonzero"/><path fill="#000000" d="m535.62384 223.42741l-15.0625 45.687485l16.5 55.5l-27.18747 0l-10.625 -43.375l0 43.375l-26.3125 0l0 -101.187485l26.3125 0l0 39.312485l11.6875 -39.312485l24.68747 0z" fill-rule="nonzero"/><path fill="#000000" d="m587.7801 291.28677l-27.234375 0l0 14.9375q0 4.6875 0.671875 6.046875q0.671875 1.359375 2.59375 1.359375q2.40625 0 3.203125 -1.796875q0.8125 -1.796875 0.8125 -6.953125l0 -9.109375l19.953125 0l0 5.09375q0 6.40625 -0.8125 9.84375q-0.8125 3.4375 -3.78125 7.34375q-2.96875 3.90625 -7.53125 5.859375q-4.546875 1.953125 -11.421875 1.953125q-6.65625 0 -11.765625 -1.921875q-5.109375 -1.9375 -7.953125 -5.296875q-2.828125 -3.359375 -3.921875 -7.390625q-1.09375 -4.03125 -1.09375 -11.75l0 -20.140625q0 -9.0625 2.4375 -14.296875q2.453125 -5.234375 8.03125 -8.015625q5.578125 -2.7968597 12.8125 -2.7968597q8.84375 0 14.59375 3.3593597q5.765625 3.359375 8.078125 8.90625q2.328125 5.546875 2.328125 15.59375l0 9.171875zm-21.09375 -11.25l0 -5.046875q0 -5.375 -0.578125 -6.9375q-0.578125 -1.5625 -2.34375 -1.5625q-2.1875 0 -2.703125 1.328125q-0.515625 1.328125 -0.515625 7.171875l0 5.046875l6.140625 0z" fill-rule="nonzero"/><path fill="#000000" d="m654.8998 223.42741l0 101.187485l-23.0625 0l-13.6875 -46.0l0 46.0l-22.0 0l0 -101.187485l22.0 0l14.75 45.562485l0 -45.562485l22.0 0z" fill-rule="nonzero"/><path fill="#000000" d="m396.8056 406.6768l-20.078125 0l0 11.015625q0 3.46875 0.484375 4.46875q0.5 0.984375 1.921875 0.984375q1.765625 0 2.359375 -1.3125q0.609375 -1.328125 0.609375 -5.140625l0 -6.71875l14.703125 0l0 3.765625q0 4.71875 -0.59375 7.265625q-0.59375 2.53125 -2.78125 5.421875q-2.1875 2.875 -5.5625 4.3125q-3.359375 1.4375 -8.421875 1.4375q-4.921875 0 -8.6875 -1.421875q-3.75 -1.421875 -5.84375 -3.890625q-2.09375 -2.484375 -2.90625 -5.453125q-0.8125 -2.984375 -0.8125 -8.671875l0 -14.859375q0 -6.6875 1.8125 -10.546875q1.8125 -3.859375 5.921875 -5.90625q4.109375 -2.0625 9.4375 -2.0625q6.53125 0 10.765625 2.484375q4.25 2.46875 5.953125 6.5625q1.71875 4.09375 1.71875 11.5l0 6.765625zm-15.546875 -8.296875l0 -3.71875q0 -3.96875 -0.4375 -5.109375q-0.421875 -1.15625 -1.71875 -1.15625q-1.609375 0 -2.0 0.984375q-0.375 0.96875 -0.375 5.28125l0 3.71875l4.53125 0zm54.91461 1.15625l-14.640625 0l0 -5.875q0 -3.078125 -0.5 -4.171875q-0.484375 -1.09375 -1.828125 -1.09375q-1.34375 0 -1.8125 0.96875q-0.453125 0.953125 -0.453125 4.296875l0 24.03125q0 2.734375 0.6875 4.09375q0.6875 1.359375 2.03125 1.359375q1.578125 0 2.125 -1.421875q0.5625 -1.421875 0.5625 -5.375l0 -6.0625l13.828125 0q-0.03125 6.109375 -0.4375 9.171875q-0.40625 3.046875 -2.578125 6.25q-2.171875 3.203125 -5.671875 4.84375q-3.484375 1.625 -8.640625 1.625q-6.5625 0 -10.40625 -2.25q-3.84375 -2.25 -5.4375 -6.296875q-1.59375 -4.046875 -1.59375 -11.5l0 -14.484375q0 -6.484375 1.3125 -9.78125q1.3125 -3.3125 5.5625 -5.90625q4.265625 -2.59375 10.375 -2.59375q6.0625 0 10.359375 2.578125q4.3125 2.578125 5.734375 6.5q1.421875 3.90625 1.421875 11.09375zm39.71814 -1.34375l0 12.484375q0 6.859375 -0.703125 10.078125q-0.6875 3.203125 -2.953125 5.984375q-2.265625 2.78125 -5.828125 4.109375q-3.546875 1.328125 -8.15625 1.328125q-5.140625 0 -8.71875 -1.125q-3.5625 -1.140625 -5.546875 -3.421875q-1.96875 -2.296875 -2.828125 -5.53125q-0.84375 -3.25 -0.84375 -9.734375l0 -13.0625q0 -7.109375 1.53125 -11.09375q1.546875 -4.0 5.53125 -6.421875q4.0 -2.421875 10.234375 -2.421875q5.21875 0 8.953125 1.5625q3.75 1.546875 5.78125 4.046875q2.046875 2.5 2.796875 5.15625q0.75 2.640625 0.75 8.0625zm-15.515625 -3.84375q0 -3.921875 -0.4375 -4.9375q-0.421875 -1.015625 -1.796875 -1.015625q-1.375 0 -1.84375 1.015625q-0.453125 1.015625 -0.453125 4.9375l0 23.0q0 3.609375 0.453125 4.703125q0.46875 1.09375 1.8125 1.09375q1.375 0 1.8125 -0.984375q0.453125 -1.0 0.453125 -4.3125l0 -23.5zm36.398987 -14.0625l-0.265625 4.6875q1.6875 -2.796875 4.125 -4.203125q2.4375 -1.40625 5.625 -1.40625q4.0 0 6.53125 1.890625q2.53125 1.875 3.265625 4.734375q0.734375 2.859375 0.734375 9.546875l0 35.71875l-15.515625 0l0 -35.296875q0 -5.265625 -0.34375 -6.40625q-0.34375 -1.15625 -1.921875 -1.15625q-1.65625 0 -2.078125 1.328125q-0.421875 1.3125 -0.421875 7.078125l0 34.453125l-15.515625 0l0 -50.96875l15.78125 0zm60.461365 17.90625l0 12.484375q0 6.859375 -0.703125 10.078125q-0.6875 3.203125 -2.953125 5.984375q-2.265625 2.78125 -5.828125 4.109375q-3.546875 1.328125 -8.15625 1.328125q-5.140625 0 -8.71875 -1.125q-3.5625 -1.140625 -5.546875 -3.421875q-1.96875 -2.296875 -2.828125 -5.53125q-0.84375 -3.25 -0.84375 -9.734375l0 -13.0625q0 -7.109375 1.53125 -11.09375q1.546875 -4.0 5.53125 -6.421875q4.0 -2.421875 10.234375 -2.421875q5.21875 0 8.953125 1.5625q3.75 1.546875 5.78125 4.046875q2.046875 2.5 2.796875 5.15625q0.75 2.640625 0.75 8.0625zm-15.515625 -3.84375q0 -3.921875 -0.4375 -4.9375q-0.421875 -1.015625 -1.796875 -1.015625q-1.375 0 -1.84375 1.015625q-0.453125 1.015625 -0.453125 4.9375l0 23.0q0 3.609375 0.453125 4.703125q0.46875 1.09375 1.8125 1.09375q1.375 0 1.8125 -0.984375q0.453125 -1.0 0.453125 -4.3125l0 -23.5zm35.9458 -14.0625l-0.265625 4.84375q1.796875 -2.875 4.296875 -4.3125q2.5 -1.453125 5.6875 -1.453125q6.21875 0 9.78125 5.765625q1.96875 -2.875 4.421875 -4.3125q2.453125 -1.453125 5.453125 -1.453125q3.953125 0 6.546875 1.921875q2.59375 1.921875 3.328125 4.703125q0.734375 2.78125 0.734375 9.046875l0 36.21875l-15.0625 0l0 -33.21875q0 -6.53125 -0.453125 -8.078125q-0.4375 -1.5625 -2.046875 -1.5625q-1.640625 0 -2.125 1.546875q-0.484375 1.53125 -0.484375 8.09375l0 33.21875l-15.046875 0l0 -32.375q0 -7.484375 -0.375 -8.984375q-0.359375 -1.5 -2.015625 -1.5q-1.03125 0 -1.765625 0.796875q-0.734375 0.78125 -0.8125 1.921875q-0.0625 1.125 -0.0625 4.8125l0 35.328125l-15.0625 0l0 -50.96875l15.328125 0zm77.79993 0l-4.453125 36.875q-1.03125 8.75 -1.75 11.9375q-0.703125 3.1875 -2.359375 5.265625q-1.640625 2.078125 -4.578125 3.046875q-2.9375 0.984375 -9.390625 0.984375l-9.421875 0l0 -8.140625q3.609375 0 4.640625 -0.359375q1.046875 -0.375 1.046875 -1.640625q0 -0.609375 -0.953125 -5.328125l-8.484375 -42.640625l14.09375 0l5.0625 34.375l2.453125 -34.375l14.09375 0z" fill-rule="nonzero"/></g></svg>